<svg width="20" height="21" viewBox="0 0 20 21" fill="none" xmlns="http://www.w3.org/2000/svg">
<g id="Frame">
<path id="Vector" d="M9.58268 12.1763C7.87717 12.097 6.15213 12.5053 4.64732 13.4013C3.46835 14.1033 0.377154 15.5368 2.2599 17.3305C3.17961 18.2067 4.20392 18.8333 5.49174 18.8333H9.99935" stroke="#939A9E" stroke-width="1.25" stroke-linecap="round" stroke-linejoin="round"/>
<path id="Vector_2" d="M12.916 5.91666C12.916 7.98772 11.2371 9.66666 9.16602 9.66666C7.09495 9.66666 5.41602 7.98772 5.41602 5.91666C5.41602 3.84559 7.09495 2.16666 9.16602 2.16666C11.2371 2.16666 12.916 3.84559 12.916 5.91666Z" stroke="#939A9E" stroke-width="1.25"/>
<path id="Vector_3" d="M14.9993 17.7619V18.8333M14.9993 17.7619C14.0353 17.7619 13.1861 17.2884 12.6879 16.5694M14.9993 17.7619C15.9633 17.7619 16.8126 17.2884 17.3108 16.5694M12.6879 16.5694L11.6663 17.2262M12.6879 16.5694C12.3933 16.1442 12.2216 15.6331 12.2216 15.0833C12.2216 14.5336 12.3933 14.0226 12.6878 13.5974M17.3108 16.5694L18.3323 17.2262M17.3108 16.5694C17.6053 16.1442 17.7771 15.6331 17.7771 15.0833C17.7771 14.5336 17.6054 14.0226 17.3108 13.5974M14.9993 12.4048C15.9634 12.4048 16.8128 12.8783 17.3108 13.5974M14.9993 12.4048C14.0353 12.4048 13.1859 12.8783 12.6878 13.5974M14.9993 12.4048V11.3333M17.3108 13.5974L18.3327 12.9405M12.6878 13.5974L11.666 12.9405" stroke="#939A9E" stroke-width="1.25" stroke-linecap="round"/>
</g>
</svg>
