<svg width="20" height="20" viewBox="0 0 20 20" fill="none" xmlns="http://www.w3.org/2000/svg">
<path d="M2.08334 9.99967C2.08334 6.26772 2.08334 4.40175 3.24271 3.24237C4.40209 2.08301 6.26806 2.08301 10 2.08301C13.7319 2.08301 15.5979 2.08301 16.7573 3.24237C17.9167 4.40175 17.9167 6.26772 17.9167 9.99967C17.9167 13.7316 17.9167 15.5976 16.7573 16.757C15.5979 17.9163 13.7319 17.9163 10 17.9163C6.26806 17.9163 4.40209 17.9163 3.24271 16.757C2.08334 15.5976 2.08334 13.7316 2.08334 9.99967Z" stroke="black" stroke-width="1.25"/>
<path d="M9.16666 5.83301H14.1667" stroke="black" stroke-width="1.25" stroke-linecap="round"/>
<path d="M5.83334 5.83301H6.66668" stroke="black" stroke-width="1.25" stroke-linecap="round"/>
<path d="M5.83334 10H6.66668" stroke="black" stroke-width="1.25" stroke-linecap="round"/>
<path d="M5.83334 14.167H6.66668" stroke="black" stroke-width="1.25" stroke-linecap="round"/>
<path d="M9.16666 10H14.1667" stroke="black" stroke-width="1.25" stroke-linecap="round"/>
<path d="M9.16666 14.167H14.1667" stroke="black" stroke-width="1.25" stroke-linecap="round"/>
</svg>
