<svg width="20" height="21" viewBox="0 0 20 21" fill="none" xmlns="http://www.w3.org/2000/svg">
<path d="M14.5834 6.75122C15.7538 6.75122 16.3389 6.75122 16.7593 7.0321C16.9413 7.1537 17.0975 7.30995 17.2191 7.49194C17.5 7.91231 17.5 8.4975 17.5 9.66789V16.3346C17.5 17.505 17.5 18.0901 17.2191 18.5105C17.0975 18.6925 16.9413 18.8487 16.7593 18.9703C16.3389 19.2512 15.7538 19.2512 14.5834 19.2512C13.4129 19.2512 12.8278 19.2512 12.4074 18.9703C12.2254 18.8487 12.0692 18.6925 11.9476 18.5105C11.6667 18.0901 11.6667 17.505 11.6667 16.3346V9.66789C11.6667 8.4975 11.6667 7.91231 11.9476 7.49194C12.0692 7.30995 12.2254 7.1537 12.4074 7.0321C12.8278 6.75122 13.4129 6.75122 14.5834 6.75122Z" stroke="black" stroke-width="1.25"/>
<path d="M5.41667 6.75122C6.58705 6.75122 7.17224 6.75122 7.59262 7.0321C7.7746 7.1537 7.93085 7.30995 8.05245 7.49194C8.33333 7.91231 8.33333 8.4975 8.33333 9.66789V16.3346C8.33333 17.505 8.33333 18.0901 8.05245 18.5105C7.93085 18.6925 7.7746 18.8487 7.59262 18.9703C7.17224 19.2512 6.58705 19.2512 5.41667 19.2512C4.24628 19.2512 3.66109 19.2512 3.24072 18.9703C3.05873 18.8487 2.90248 18.6925 2.78088 18.5105C2.5 18.0901 2.5 17.505 2.5 16.3346V9.66789C2.5 8.4975 2.5 7.91231 2.78088 7.49194C2.90248 7.30995 3.05873 7.1537 3.24072 7.0321C3.66109 6.75122 4.24628 6.75122 5.41667 6.75122Z" stroke="black" stroke-width="1.25"/>
<path d="M12.5 2.58472L11.1785 3.86237C10.6229 4.39948 10.3452 4.66805 10 4.66805C9.65483 4.66805 9.37708 4.39949 8.8215 3.86237L7.5 2.58472" stroke="black" stroke-width="1.25" stroke-linecap="round" stroke-linejoin="round"/>
</svg>
