<svg width="20" height="20" viewBox="0 0 20 20" fill="none" xmlns="http://www.w3.org/2000/svg">
<g id="Frame">
<path id="Vector" d="M13.6877 3.83757L14.5127 3.01258C15.1962 2.32914 16.3043 2.32914 16.9877 3.01258C17.6712 3.69603 17.6712 4.80411 16.9877 5.48756L16.1627 6.31255M13.6877 3.83757L8.13831 9.387C7.71538 9.81 7.41536 10.3398 7.2703 10.9201L6.66699 13.3333L9.08024 12.73C9.66049 12.585 10.1903 12.2849 10.6133 11.862L16.1627 6.31255M13.6877 3.83757L16.1627 6.31255" stroke="black" stroke-width="1.25" stroke-linejoin="round"/>
<path id="Vector_2" d="M15.8333 11.25C15.8333 13.9896 15.8332 15.3594 15.0767 16.2814C14.9382 16.4501 14.7834 16.6049 14.6146 16.7434C13.6927 17.5 12.3228 17.5 9.58325 17.5H9.16667C6.02397 17.5 4.45263 17.5 3.47632 16.5237C2.50002 15.5474 2.5 13.976 2.5 10.8334V10.4167C2.5 7.67712 2.5 6.30735 3.25662 5.38539C3.39514 5.2166 3.54992 5.06183 3.7187 4.9233C4.64066 4.16669 6.01043 4.16669 8.75 4.16669" stroke="black" stroke-width="1.25" stroke-linecap="round" stroke-linejoin="round"/>
</g>
</svg>
