<svg width="21" height="21" viewBox="0 0 21 21" fill="none" xmlns="http://www.w3.org/2000/svg">
<path d="M18.4534 10.1222C18.7067 10.4775 18.8334 10.6551 18.8334 10.918C18.8334 11.181 18.7067 11.3586 18.4534 11.7139C17.3149 13.3102 14.4077 16.7514 10.5 16.7514C6.59234 16.7514 3.6851 13.3102 2.54672 11.7139C2.29336 11.3586 2.16669 11.181 2.16669 10.918C2.16669 10.6551 2.29336 10.4775 2.54672 10.1222C3.6851 8.52592 6.59234 5.08472 10.5 5.08472C14.4077 5.08472 17.3149 8.52592 18.4534 10.1222Z" stroke="white" stroke-width="1.25"/>
<path d="M13 10.918C13 9.53722 11.8807 8.41797 10.5 8.41797C9.11925 8.41797 8 9.53722 8 10.918C8 12.2987 9.11925 13.418 10.5 13.418C11.8807 13.418 13 12.2987 13 10.918Z" stroke="white" stroke-width="1.25"/>
</svg>
