<svg width="24" height="24" viewBox="0 0 24 24" fill="none" xmlns="http://www.w3.org/2000/svg">
<path fill-rule="evenodd" clip-rule="evenodd" d="M6.18179 10.3333C5.20403 10.3333 4.99997 10.5252 4.99997 11.4444V13.1111C4.99997 14.0304 5.20403 14.2222 6.18179 14.2222H8.54542V20.8889C8.54542 21.8081 8.74948 22 9.72724 22H12.0909C13.0687 22 13.2727 21.8081 13.2727 20.8889V14.2222H15.9267C16.6683 14.2222 16.8594 14.0867 17.0631 13.4164L17.5696 11.7497C17.9185 10.6014 17.7035 10.3333 16.4332 10.3333H13.2727V7.55556C13.2727 6.94191 13.8018 6.44444 14.4545 6.44444H17.8182C18.7959 6.44444 19 6.25259 19 5.33333V3.11111C19 2.19185 18.7959 2 17.8182 2H14.4545C11.191 2 8.54542 4.48731 8.54542 7.55556V10.3333H6.18179Z" stroke="#939A9E" stroke-width="1.5" stroke-linejoin="round"/>
</svg>
