<svg width="48" height="48" viewBox="0 0 48 48" fill="none" xmlns="http://www.w3.org/2000/svg">
<rect width="48" height="48" rx="24" fill="white"/>
<path d="M34 24C34 20.3109 34 18.4663 33.1862 17.1588C32.8851 16.675 32.5111 16.2543 32.0811 15.9155C30.9188 15 29.2792 15 26 15H22C18.7208 15 17.0812 15 15.9189 15.9155C15.4889 16.2543 15.1149 16.675 14.8138 17.1588C14 18.4663 14 20.3109 14 24C14 27.6891 14 29.5337 14.8138 30.8412C15.1149 31.325 15.4889 31.7457 15.9189 32.0845C17.0812 33 18.7208 33 22 33H26C29.2792 33 30.9188 33 32.0811 32.0845C32.5111 31.7457 32.8851 31.325 33.1862 30.8412C34 29.5337 34 27.6891 34 24Z" stroke="#464646" stroke-width="1.5"/>
<path d="M26.5 15V33" stroke="#464646" stroke-width="1.5" stroke-linejoin="round"/>
<path d="M31 19H30M31 22H30" stroke="#464646" stroke-width="1.5" stroke-linecap="round" stroke-linejoin="round"/>
</svg>
