<svg width="24" height="25" viewBox="0 0 24 25" fill="none" xmlns="http://www.w3.org/2000/svg">
<path d="M22 12.5C22 8.81087 22 6.9663 21.1862 5.65877C20.8851 5.17502 20.5111 4.75427 20.0811 4.41554C18.9188 3.5 17.2792 3.5 14 3.5H10C6.7208 3.5 5.0812 3.5 3.9189 4.41554C3.4889 4.75427 3.1149 5.17502 2.8138 5.65877C2 6.9663 2 8.81087 2 12.5C2 16.1891 2 18.0337 2.8138 19.3412C3.1149 19.825 3.4889 20.2457 3.9189 20.5845C5.0812 21.5 6.7208 21.5 10 21.5H14C17.2792 21.5 18.9188 21.5 20.0811 20.5845C20.5111 20.2457 20.8851 19.825 21.1862 19.3412C22 18.0337 22 16.1891 22 12.5Z" stroke="#FCD535" stroke-width="1.5"/>
<path d="M14.5 3.5V21.5" stroke="#FCD535" stroke-width="1.5" stroke-linejoin="round"/>
<path d="M19 7.5H18M19 10.5H18" stroke="#FCD535" stroke-width="1.5" stroke-linecap="round" stroke-linejoin="round"/>
</svg>
