<svg width="36" height="37" viewBox="0 0 36 37" fill="none" xmlns="http://www.w3.org/2000/svg">
<g id="Frame" clip-path="url(#clip0_84_1095)">
<path id="Vector" d="M6.73622 15.539C8.02918 10.1652 8.67566 7.47826 10.7468 6.21048C12.8179 4.94272 15.5048 5.5892 20.8787 6.88216C26.2525 8.1751 28.9394 8.82159 30.2073 10.8927C31.475 12.9638 30.8285 15.6508 29.5356 21.0246C28.2426 26.3984 27.5961 29.0854 25.525 30.3532C23.4539 31.6209 20.7669 30.9744 15.3931 29.6815C10.0193 28.3885 7.33233 27.7421 6.06454 25.671C4.79679 23.5998 5.44328 20.9128 6.73622 15.539Z" stroke="#FCD535" stroke-width="1.85131"/>
<path id="Vector_2" d="M24.4018 15.9811C25.3959 16.2203 26.3957 15.6083 26.6348 14.6142C26.874 13.6202 26.262 12.6204 25.268 12.3812C24.2739 12.142 23.2741 12.754 23.0349 13.7481C22.7958 14.7422 23.4077 15.7419 24.4018 15.9811Z" stroke="#FCD535" stroke-width="1.85131"/>
<path id="Vector_3" d="M20.0486 31.4361C19.9477 28.5872 18.7879 25.7785 16.7364 23.4469C14.5245 20.9327 11.42 19.1369 7.97681 18.3796C7.57012 18.2808 7.16043 18.1959 6.74866 18.1253" stroke="#FCD535" stroke-width="1.85131" stroke-linejoin="round"/>
<path id="Vector_4" d="M17.6037 25.7701C20.0285 24.6694 22.4245 24.382 24.6444 24.9254C25.9047 25.2272 27.0944 25.796 28.1898 26.6183" stroke="#FCD535" stroke-width="1.85131" stroke-linejoin="round"/>
</g>
<defs>
<clipPath id="clip0_84_1095">
<rect width="29.621" height="29.621" fill="white" transform="translate(7.20093 0.417389) rotate(13.5283)"/>
</clipPath>
</defs>
</svg>
