<svg width="24" height="24" viewBox="0 0 24 24" fill="none" xmlns="http://www.w3.org/2000/svg">
<g id="Frame">
<path id="Vector" d="M12 12C7.46544 12 3.62948 14.9642 2.35747 19.044C1.99646 20.2019 1.81595 20.7809 2.26968 21.3904C2.7234 22 3.46112 22 4.93655 22H19.0634C20.5389 22 21.2766 22 21.7303 21.3904C22.184 20.7809 22.0035 20.2019 21.6425 19.044C20.3705 14.9642 16.5346 12 12 12Z" stroke="#EBEDEE" stroke-width="1.5" stroke-linecap="round"/>
<path id="Vector_2" d="M15 17H15.0075" stroke="#EBEDEE" stroke-width="2" stroke-linecap="round" stroke-linejoin="round"/>
<path id="Vector_3" d="M12 22C12 20.3431 10.6569 19 9 19C7.34315 19 6 20.3431 6 22" stroke="#EBEDEE" stroke-width="1.5" stroke-linecap="round"/>
<path id="Vector_4" d="M12 12V7.50002M12 7.50002V5.00002C12 3.58581 12 2.8787 12.4393 2.43936C12.8787 2.00002 13.5858 2.00002 15 2.00002H17.25C18.4228 2.00002 19.0092 2.00002 19.4131 2.30999C19.5171 2.38979 19.6102 2.48288 19.69 2.58688C20 2.99084 20 3.57723 20 4.75002C20 5.92281 20 6.5092 19.69 6.91316C19.6102 7.01716 19.5171 7.11025 19.4131 7.19005C19.0092 7.50002 18.4228 7.50002 17.25 7.50002H12Z" stroke="#EBEDEE" stroke-width="1.5" stroke-linecap="round"/>
</g>
</svg>
