<svg width="20" height="21" viewBox="0 0 20 21" fill="none" xmlns="http://www.w3.org/2000/svg">
<g id="Frame">
<path id="Vector" d="M12.0833 18.8333L11.8204 18.4843C11.2278 17.6974 11.0808 16.4953 11.4557 15.5" stroke="#939A9E" stroke-width="1.25" stroke-linecap="round"/>
<path id="Vector_2" d="M7.91602 18.8333L8.17893 18.4843C8.7716 17.6974 8.9186 16.4953 8.54368 15.5" stroke="#939A9E" stroke-width="1.25" stroke-linecap="round"/>
<path id="Vector_3" d="M5.83398 18.8333H14.1673" stroke="#939A9E" stroke-width="1.25" stroke-linecap="round"/>
<path id="Vector_4" d="M11.666 2.16666H8.33268C5.59999 2.16666 4.23365 2.16666 3.26511 2.84484C2.90677 3.09574 2.5951 3.40741 2.3442 3.76575C1.66602 4.73429 1.66602 6.10063 1.66602 8.83332C1.66602 11.566 1.66602 12.9323 2.3442 13.9009C2.5951 14.2592 2.90677 14.5709 3.26511 14.8218C4.23365 15.5 5.59999 15.5 8.33268 15.5H11.666C14.3987 15.5 15.765 15.5 16.7336 14.8218C17.0919 14.5709 17.4036 14.2592 17.6545 13.9009C18.3327 12.9323 18.3327 11.566 18.3327 8.83332C18.3327 6.10063 18.3327 4.73429 17.6545 3.76575C17.4036 3.40741 17.0919 3.09574 16.7336 2.84484C15.765 2.16666 14.3987 2.16666 11.666 2.16666Z" stroke="#939A9E" stroke-width="1.25" stroke-linecap="round"/>
<g id="Group 1">
<path id="Vector 1" d="M13 9H7" stroke="#939A9E" stroke-width="1.25" stroke-linecap="round"/>
<path id="Vector 2" d="M10 12L10 6" stroke="#939A9E" stroke-width="1.25" stroke-linecap="round"/>
</g>
</g>
</svg>
