<svg width="20" height="21" viewBox="0 0 20 21" fill="none" xmlns="http://www.w3.org/2000/svg">
<g id="Frame">
<path id="Vector" d="M4.31607 13.247C3.26809 13.8612 0.520359 15.1155 2.19391 16.685C3.01143 17.4517 3.92193 18 5.06666 18H11.5987C12.7434 18 13.6539 17.4517 14.4714 16.685C16.145 15.1155 13.3973 13.8612 12.3493 13.247C9.89176 11.8066 6.77356 11.8066 4.31607 13.247Z" stroke="#939A9E" stroke-width="1.25" stroke-linecap="round" stroke-linejoin="round"/>
<path id="Vector_2" d="M11.6667 6.33333C11.6667 8.17428 10.1742 9.66667 8.33333 9.66667C6.49238 9.66667 5 8.17428 5 6.33333C5 4.49238 6.49238 3 8.33333 3C10.1742 3 11.6667 4.49238 11.6667 6.33333Z" stroke="#939A9E" stroke-width="1.25"/>
<path id="Vector_3" d="M18.3327 4.25L16.2493 6.33333M16.2493 6.33333L14.166 8.41667M16.2493 6.33333L18.3327 8.41667M16.2493 6.33333L14.166 4.25" stroke="#939A9E" stroke-width="1.25" stroke-linecap="round" stroke-linejoin="round"/>
</g>
</svg>
