<svg width="24" height="25" viewBox="0 0 24 25" fill="none" xmlns="http://www.w3.org/2000/svg">
<g id="Frame">
<path id="Vector" d="M5.15837 11.9911C5.08489 13.3871 5.16936 14.8731 3.92213 15.8085C3.34164 16.2439 3 16.9271 3 17.6528C3 18.6509 3.7818 19.5001 4.8 19.5001H19.2C20.2182 19.5001 21 18.6509 21 17.6528C21 16.9271 20.6584 16.2439 20.0779 15.8085C18.8306 14.8731 18.9151 13.3871 18.8416 11.9911C18.6501 8.35229 15.6438 5.50006 12 5.50006C8.35617 5.50006 5.34988 8.35228 5.15837 11.9911Z" stroke="black" stroke-width="1.5" stroke-linecap="round" stroke-linejoin="round"/>
<path id="Vector_2" d="M10.5 3.62506C10.5 4.45349 11.1716 5.50006 12 5.50006C12.8284 5.50006 13.5 4.45349 13.5 3.62506C13.5 2.79663 12.8284 2.50006 12 2.50006C11.1716 2.50006 10.5 2.79663 10.5 3.62506Z" stroke="black" stroke-width="1.5"/>
<path id="Vector_3" d="M15 19.5C15 21.1569 13.6569 22.5 12 22.5C10.3431 22.5 9 21.1569 9 19.5" stroke="black" stroke-width="1.5" stroke-linecap="round" stroke-linejoin="round"/>
</g>
</svg>
