<svg width="20" height="21" viewBox="0 0 20 21" fill="none" xmlns="http://www.w3.org/2000/svg">
<g id="Frame">
<path id="Vector" d="M16.919 4.04398C17.9173 5.21284 17.9173 6.97524 17.9173 10.5C17.9173 14.0248 17.9173 15.7872 16.919 16.956C16.7772 17.122 16.6227 17.2766 16.4567 17.4183C15.2878 18.4167 13.5254 18.4167 10.0007 18.4167C6.47588 18.4167 4.71348 18.4167 3.54462 17.4183C3.37863 17.2766 3.22405 17.122 3.08229 16.956C2.08398 15.7872 2.08398 14.0248 2.08398 10.5C2.08398 6.97524 2.08398 5.21284 3.08229 4.04398C3.22405 3.87799 3.37863 3.72341 3.54462 3.58165C4.71348 2.58334 6.47588 2.58334 10.0007 2.58334C13.5254 2.58334 15.2878 2.58334 16.4567 3.58165C16.6227 3.72341 16.7772 3.87799 16.919 4.04398Z" stroke="#939A9E" stroke-width="1.25" stroke-linecap="round" stroke-linejoin="round"/>
<path id="Vector_2" d="M11.25 7.16666H7.5V13.8333H10.8333V11.3333H11.25C12.4006 11.3333 13.3333 10.4006 13.3333 9.24999C13.3333 8.0994 12.4006 7.16666 11.25 7.16666Z" stroke="#939A9E" stroke-width="1.25" stroke-linecap="round" stroke-linejoin="round"/>
</g>
</svg>
