<svg width="20" height="21" viewBox="0 0 20 21" fill="none" xmlns="http://www.w3.org/2000/svg">
<g id="Frame">
<path id="Vector" d="M14.1869 3.02797L13.3914 2.81602C11.1415 2.21654 10.0165 1.91681 9.13023 2.42561C8.24395 2.93441 7.94251 4.05305 7.33963 6.29033L6.48703 9.45432C5.88415 11.6916 5.58272 12.8102 6.0944 13.6915C6.60608 14.5728 7.73108 14.8725 9.98107 15.472L10.7766 15.684C13.0265 16.2834 14.1515 16.5832 15.0377 16.0744C15.924 15.5656 16.2255 14.4469 16.8283 12.2097L17.6809 9.04566C18.2838 6.80836 18.5852 5.68972 18.0736 4.80846C17.5619 3.92719 16.4369 3.62745 14.1869 3.02797Z" stroke="#939A9E" stroke-width="1.25"/>
<path id="Vector_2" d="M14.0449 6.69423C14.0449 7.37263 13.4918 7.92259 12.8096 7.92259C12.1273 7.92259 11.5742 7.37263 11.5742 6.69423C11.5742 6.01583 12.1273 5.46588 12.8096 5.46588C13.4918 5.46588 14.0449 6.01583 14.0449 6.69423Z" stroke="#939A9E" stroke-width="1.25"/>
<path id="Vector_3" d="M9.99935 17.9552L9.20577 18.1713C6.96104 18.7826 5.8387 19.0882 4.95451 18.5694C4.07033 18.0507 3.76959 16.9101 3.16813 14.6289L2.31753 11.4028C1.71607 9.12166 1.41533 7.98109 1.92583 7.08253C2.36741 6.30526 3.33268 6.33356 4.58268 6.33346" stroke="#939A9E" stroke-width="1.25" stroke-linecap="round"/>
</g>
</svg>
