<svg width="20" height="20" viewBox="0 0 20 20" fill="none" xmlns="http://www.w3.org/2000/svg">
<path d="M18.2998 9.14225C18.3445 9.83408 18.3445 10.5506 18.2998 11.2424C18.0713 14.7777 15.2947 17.5938 11.8088 17.8254C10.6196 17.9045 9.37799 17.9043 8.19115 17.8254C7.78245 17.7983 7.33699 17.7008 6.95333 17.5428C6.52646 17.3669 6.31299 17.279 6.20452 17.2923C6.09605 17.3057 5.93865 17.4218 5.62389 17.6538C5.06889 18.0631 4.36971 18.3571 3.33285 18.3318C2.80854 18.3191 2.54639 18.3127 2.42902 18.1126C2.31166 17.9125 2.45783 17.6355 2.75016 17.0815C3.1556 16.3132 3.4125 15.4336 3.02325 14.7288C2.35285 13.7222 1.7834 12.53 1.70019 11.2424C1.65548 10.5506 1.65548 9.83408 1.70019 9.14225C1.92866 5.60699 4.70531 2.79094 8.19115 2.55923C9.19315 2.49262 9.40099 2.48213 10.4167 2.52807" stroke="black" stroke-width="1.25" stroke-linecap="round" stroke-linejoin="round"/>
<path d="M18.3333 4.58366C18.3333 6.19449 17.0275 7.50033 15.4167 7.50033C13.8058 7.50033 12.5 6.19449 12.5 4.58366C12.5 2.97283 13.8058 1.66699 15.4167 1.66699C17.0275 1.66699 18.3333 2.97283 18.3333 4.58366Z" stroke="black" stroke-width="1.25"/>
</svg>
