<svg width="20" height="21" viewBox="0 0 20 21" fill="none" xmlns="http://www.w3.org/2000/svg">
<g id="Frame">
<path id="Vector" d="M18.3327 10.9168C18.3327 10.5073 18.3283 9.68101 18.3195 9.27034C18.2651 6.71572 18.2378 5.43841 17.2953 4.49222C16.3526 3.54603 15.0408 3.51307 12.417 3.44715C10.7999 3.40651 9.19877 3.40651 7.5817 3.44714C4.95796 3.51306 3.64608 3.54601 2.70347 4.49221C1.76087 5.43841 1.73363 6.71571 1.67915 9.27034C1.66163 10.0918 1.66164 10.9083 1.67916 11.7297C1.73363 14.2843 1.76087 15.5616 2.70348 16.5078C3.64608 17.454 4.95796 17.4869 7.58171 17.5528C8.25067 17.5697 8.91693 17.5795 9.58268 17.5824" stroke="#939A9E" stroke-width="1.25" stroke-linecap="round" stroke-linejoin="round"/>
<path id="Vector_2" d="M1.66602 5.5L7.42687 8.77052C9.5316 9.96542 10.4671 9.96542 12.5718 8.77052L18.3327 5.5" stroke="#939A9E" stroke-width="1.25" stroke-linejoin="round"/>
<path id="Vector_3" d="M18.3327 15.0833H11.666M18.3327 15.0833C18.3327 14.4998 16.6708 13.4096 16.2493 13M18.3327 15.0833C18.3327 15.6668 16.6708 16.7571 16.2493 17.1667" stroke="#939A9E" stroke-width="1.25" stroke-linecap="round" stroke-linejoin="round"/>
</g>
</svg>
