<svg width="20" height="21" viewBox="0 0 20 21" fill="none" xmlns="http://www.w3.org/2000/svg">
<path d="M9.935 4.5542C13.9136 3.19788 15.9028 2.51972 16.9728 3.58968C18.0427 4.65964 17.3646 6.64893 16.0083 10.6275L15.0847 13.3368C14.0431 16.3923 13.5222 17.9201 12.6637 18.0465C12.4329 18.0805 12.194 18.0601 11.9656 17.9868C11.1162 17.7141 10.6672 16.1033 9.76925 12.8817C9.57008 12.1671 9.4705 11.8098 9.24366 11.5368C9.17783 11.4577 9.10483 11.3847 9.02566 11.3188C8.75275 11.092 8.39541 10.9924 7.68087 10.7933C4.45926 9.89525 2.84845 9.44625 2.57575 8.59689C2.50243 8.36853 2.48197 8.12961 2.51596 7.89879C2.6424 7.04027 4.17016 6.51945 7.22566 5.47782L9.935 4.5542Z" stroke="white" stroke-width="1.25"/>
</svg>
