<svg width="20" height="21" viewBox="0 0 20 21" fill="none" xmlns="http://www.w3.org/2000/svg">
<g id="Frame">
<path id="Vector" d="M9.935 4.05442C13.9136 2.69809 15.9028 2.01993 16.9728 3.08989C18.0427 4.15985 17.3646 6.14914 16.0083 10.1277L15.0847 12.837C14.0431 15.8925 13.5222 17.4203 12.6637 17.5467C12.4329 17.5807 12.194 17.5603 11.9656 17.487C11.1162 17.2143 10.6672 15.6035 9.76925 12.3819C9.57008 11.6673 9.4705 11.31 9.24366 11.037C9.17783 10.9579 9.10483 10.8849 9.02566 10.819C8.75275 10.5922 8.39541 10.4926 7.68087 10.2935C4.45926 9.39547 2.84845 8.94647 2.57575 8.09711C2.50243 7.86875 2.48197 7.62982 2.51596 7.39901C2.6424 6.54048 4.17016 6.01967 7.22566 4.97803L9.935 4.05442Z" stroke="#1C1D1F" stroke-width="1.25"/>
</g>
</svg>
