<svg width="40" height="41" viewBox="0 0 40 41" fill="none" xmlns="http://www.w3.org/2000/svg">
<path d="M16.6667 13.4995C16.6667 13.4995 13.3614 13.2029 12.8232 13.7412C12.2849 14.2794 12.5815 17.5846 12.5815 17.5846" stroke="black" stroke-width="1.25" stroke-linecap="round" stroke-linejoin="round"/>
<path d="M16.6667 28.3364C16.6667 28.3364 13.3614 28.633 12.8232 28.0947C12.2849 27.5564 12.5815 24.2512 12.5815 24.2512" stroke="black" stroke-width="1.25" stroke-linecap="round" stroke-linejoin="round"/>
<path d="M23.3333 13.4995C23.3333 13.4995 26.6386 13.2029 27.1768 13.7412C27.7151 14.2794 27.4185 17.5846 27.4185 17.5846" stroke="black" stroke-width="1.25" stroke-linecap="round" stroke-linejoin="round"/>
<path d="M23.3333 28.3364C23.3333 28.3364 26.6386 28.633 27.1768 28.0947C27.7151 27.5564 27.4185 24.2512 27.4185 24.2512" stroke="black" stroke-width="1.25" stroke-linecap="round" stroke-linejoin="round"/>
<path d="M21.6757 19.2501L26.7187 14.207" stroke="black" stroke-width="1.25" stroke-linecap="round" stroke-linejoin="round"/>
<path d="M18.3308 22.5867L13.033 27.9019" stroke="black" stroke-width="1.25" stroke-linecap="round" stroke-linejoin="round"/>
<path d="M18.3311 19.2534L13.2048 14.1338" stroke="black" stroke-width="1.25" stroke-linecap="round" stroke-linejoin="round"/>
<path d="M21.6496 22.5867L27.1066 27.9999" stroke="black" stroke-width="1.25" stroke-linecap="round" stroke-linejoin="round"/>
</svg>
