<svg width="35" height="35" viewBox="0 0 35 35" fill="none" xmlns="http://www.w3.org/2000/svg">
<g id="Frame" clip-path="url(#clip0_84_1091)">
<path id="Vector" d="M4.76529 18.1868C4.06525 14.1748 3.71522 12.1687 4.74414 10.7049C5.77305 9.24101 7.77909 8.89099 11.7912 8.19094L13.007 7.9788C17.019 7.27876 19.025 6.92874 20.489 7.95764C21.9528 8.98656 22.3028 10.9926 23.0029 15.0047L23.4272 17.4363C24.1272 21.4484 24.4772 23.4544 23.4484 24.9183C22.4194 26.3822 20.4134 26.7322 16.4013 27.4322L15.1855 27.6444C11.1734 28.3444 9.16738 28.6944 7.70353 27.6656C6.23964 26.6366 5.88962 24.6306 5.18958 20.6185L4.76529 18.1868Z" stroke="#FCD535" stroke-width="1.85131"/>
<path id="Vector_2" d="M22.5587 12.4586L22.6898 12.3056C24.8919 9.73423 25.993 8.44853 27.1161 8.78059C28.2392 9.11266 28.5356 10.8115 29.1285 14.2092L29.4602 16.1106C30.0531 19.5084 30.3495 21.2071 29.4052 21.9C28.4609 22.5927 26.9895 21.7559 24.0467 20.0822L23.8715 19.9826" stroke="#FCD535" stroke-width="1.85131" stroke-linecap="round"/>
<path id="Vector_3" d="M16.3159 16.1717C17.3231 15.9959 17.9972 15.0369 17.8215 14.0297C17.6457 13.0225 16.6867 12.3484 15.6795 12.5242C14.6722 12.6999 13.9982 13.6589 14.1739 14.6661C14.3497 15.6734 15.3087 16.3474 16.3159 16.1717Z" stroke="#FCD535" stroke-width="1.85131"/>
</g>
<defs>
<clipPath id="clip0_84_1091">
<rect width="29.621" height="29.621" fill="white" transform="translate(0 5.23709) rotate(-9.8976)"/>
</clipPath>
</defs>
</svg>
