<svg width="20" height="21" viewBox="0 0 20 21" fill="none" xmlns="http://www.w3.org/2000/svg">
<g id="Frame">
<path id="Vector" d="M11.666 7.99991H14.9993" stroke="#939A9E" stroke-width="1.25" stroke-linecap="round"/>
<path id="Vector_2" d="M11.666 10.9166H14.166" stroke="#939A9E" stroke-width="1.25" stroke-linecap="round"/>
<path id="Vector_3" d="M14.166 2.99991H5.83268C3.5315 2.99991 1.66602 4.86539 1.66602 7.16657V13.8332C1.66602 16.1344 3.5315 17.9999 5.83268 17.9999H14.166C16.4672 17.9999 18.3327 16.1344 18.3327 13.8332V7.16657C18.3327 4.86539 16.4672 2.99991 14.166 2.99991Z" stroke="#939A9E" stroke-width="1.25" stroke-linejoin="round"/>
<path id="Vector_4" d="M4.16602 13.8332C5.17294 11.6823 8.92618 11.5408 9.99935 13.8332" stroke="#939A9E" stroke-width="1.25" stroke-linecap="round" stroke-linejoin="round"/>
<path id="Vector_5" d="M8.74935 7.99989C8.74935 8.92032 8.00316 9.66657 7.08268 9.66657C6.16221 9.66657 5.41602 8.92032 5.41602 7.99989C5.41602 7.07941 6.16221 6.33322 7.08268 6.33322C8.00316 6.33322 8.74935 7.07941 8.74935 7.99989Z" stroke="#939A9E" stroke-width="1.25"/>
</g>
</svg>
